<!-- <svg xmlns="http://www.w3.org/2000/svg" viewBox="0 0 512 512"><path d="M256 73.82A182.18 182.18 0 1 0 438.18 256 182.182 182.182 0 0 0 256 73.82zm67.825 192.217L218.7 326.734a10.376 10.376 0 0 1-15.566-8.99V196.356a10.38 10.38 0 0 1 15.575-8.99l105.125 60.696a10.376 10.376 0 0 1-.009 17.974z" data-name="Play"/></svg>
 -->
 <svg xmlns="http://www.w3.org/2000/svg" viewBox="0 0 24 24"><g data-name="24.Play"><path d="M12 24a12 12 0 1 1 12-12 12.013 12.013 0 0 1-12 12zm0-22a10 10 0 1 0 10 10A10.011 10.011 0 0 0 12 2z"/><path d="M9 16.766V7.234L16.944 12zm2-6v2.468L13.056 12z"/></g></svg>