<svg xmlns="http://www.w3.org/2000/svg" viewBox="0 0 24 24">
  <g data-name="mute audio">
    <!-- Speaker base -->
    <path d="M11.46 3c-1 0-1 .13-6.76 4H1a1 1 0 0 0-1 1v8a1 1 0 0 0 1 1h3.7l5.36 3.57A2.54 2.54 0 0 0 14 18.46V5.54A2.54 2.54 0 0 0 11.46 3zM2 9h2v6H2zm10 9.46a.55.55 0 0 1-.83.45L6 15.46V8.54l5.17-3.45a.55.55 0 0 1 .83.45z"/>
    
    <!-- Mute cross (slash across the icon) -->
    <line x1="17" y1="7" x2="22" y2="17" stroke="currentColor" stroke-width="2"/>
    <line x1="22" y1="7" x2="17" y2="17" stroke="currentColor" stroke-width="2"/>
  </g>
</svg>
